<?xml version="1.0" encoding="UTF-8" standalone="no"?>
<!-- Generator: Adobe Illustrator 17.0.0, SVG Export Plug-In . SVG Version: 6.00 Build 0)  -->

<svg
   xmlns:dc="http://purl.org/dc/elements/1.1/"
   xmlns:cc="http://creativecommons.org/ns#"
   xmlns:rdf="http://www.w3.org/1999/02/22-rdf-syntax-ns#"
   xmlns:svg="http://www.w3.org/2000/svg"
   xmlns="http://www.w3.org/2000/svg"
   xmlns:sodipodi="http://sodipodi.sourceforge.net/DTD/sodipodi-0.dtd"
   xmlns:inkscape="http://www.inkscape.org/namespaces/inkscape"
   version="1.1"
   id="Layer_1"
   x="0px"
   y="0px"
   width="250"
   height="250"
   viewBox="0 0 250 250"
   enable-background="new 0 0 87.761 36.985"
   xml:space="preserve"
   inkscape:version="0.91 r13725"
   sodipodi:docname="logo.square.svg"
   inkscape:export-filename="D:\web\jquery\ui\images2\logoverti.png"
   inkscape:export-xdpi="98.603714"
   inkscape:export-ydpi="98.603714"><metadata
     id="metadata6145"><rdf:RDF><cc:Work
         rdf:about=""><dc:format>image/svg+xml</dc:format><dc:type
           rdf:resource="http://purl.org/dc/dcmitype/StillImage" /><dc:title></dc:title></cc:Work></rdf:RDF></metadata><defs
     id="defs6143" /><sodipodi:namedview
     pagecolor="#ffffff"
     bordercolor="#666666"
     borderopacity="1"
     objecttolerance="10"
     gridtolerance="10"
     guidetolerance="10"
     inkscape:pageopacity="0"
     inkscape:pageshadow="2"
     inkscape:window-width="1920"
     inkscape:window-height="1017"
     id="namedview6141"
     showgrid="false"
     fit-margin-top="0"
     fit-margin-left="0"
     fit-margin-right="0"
     fit-margin-bottom="0"
     inkscape:zoom="1.9999999"
     inkscape:cx="123.01337"
     inkscape:cy="77.932908"
     inkscape:window-x="-8"
     inkscape:window-y="-8"
     inkscape:window-maximized="1"
     inkscape:current-layer="Layer_1" /><g
     id="text3149-7-6-7"
     style="font-style:normal;font-variant:normal;font-weight:bold;font-stretch:normal;font-size:10.33737373px;line-height:0%;font-family:Aharoni;-inkscape-font-specification:Sans;letter-spacing:0px;word-spacing:0px;fill:#7081c4;fill-opacity:1;stroke:none"
     transform="matrix(2.6816697,0,0,1.7871309,-120.39804,134.95511)"><path
       id="path6948-5-8"
       style="letter-spacing:-0.18680002px;fill:#7081c4;fill-opacity:1"
       d="m 72.373019,36.528458 -1.91302,0 -0.444184,-1.201316 -2.473297,0 -0.474469,1.201316 -1.89283,0 2.649961,-6.8899 1.953401,0 z m -2.841768,-2.564154 -0.741989,-2.195682 -0.752085,2.195682 z"
       inkscape:connector-curvature="0" /><path
       id="path6950-75-3"
       style="letter-spacing:-0.18680002px;fill:#7081c4;fill-opacity:1"
       d="m 79.868584,36.528458 -1.791879,0 -3.296048,-4.219749 0,4.219749 -1.791878,0 0,-6.8899 1.791878,0 3.296048,4.2147 0,-4.2147 1.791879,0 z"
       inkscape:connector-curvature="0" /><path
       id="path6952-4-8"
       style="letter-spacing:-0.18680002px;fill:#7081c4;fill-opacity:1"
       d="m 87.667001,36.528458 -1.91302,0 -0.444184,-1.201316 -2.473298,0 -0.474469,1.201316 -1.89283,0 2.649962,-6.8899 1.9534,0 z m -2.841769,-2.564154 -0.741989,-2.195682 -0.752084,2.195682 z"
       inkscape:connector-curvature="0" /><path
       id="path6954-12-3"
       style="letter-spacing:-0.18680002px;fill:#7081c4;fill-opacity:1"
       d="m 92.224893,36.528458 -3.942133,0 0,-6.8899 1.791879,0 0,5.390779 2.150254,0 z"
       inkscape:connector-curvature="0" /><path
       id="path6956-0-7"
       style="letter-spacing:-0.18680002px;fill:#7081c4;fill-opacity:1"
       d="m 98.97847,29.638558 -2.579296,3.57871 0,3.31119 -1.791879,0 0,-3.31119 -2.493488,-3.57871 2.14016,0 1.302267,1.877687 1.251791,-1.877687 z"
       inkscape:connector-curvature="0" /><path
       id="path6958-0-1"
       style="letter-spacing:-0.18680002px;fill:#7081c4;fill-opacity:1"
       d="m 103.48084,31.137679 -1.48398,0 0,5.390779 -1.79188,0 0,-5.390779 -1.458739,0 0,-1.499121 4.734599,0 z"
       inkscape:connector-curvature="0" /><path
       id="path6960-1-0"
       style="letter-spacing:-0.18680002px;fill:#7081c4;fill-opacity:1"
       d="m 105.86829,36.528458 -1.79188,0 0,-6.8899 1.79188,0 z"
       inkscape:connector-curvature="0" /><path
       id="path6962-4-7"
       style="letter-spacing:-0.18680002px;fill:#7081c4;fill-opacity:1"
       d="m 112.10197,36.366936 c -0.58552,0.232187 -1.12729,0.348281 -1.62531,0.348281 -0.86818,0 -1.64551,-0.277615 -2.33197,-0.832845 -0.87491,-0.71002 -1.31236,-1.635403 -1.31236,-2.77615 0,-1.144106 0.43745,-2.071171 1.31236,-2.781198 0.68646,-0.555223 1.46883,-0.832838 2.34711,-0.832845 0.47783,7e-6 1.01455,0.1161 1.61017,0.34828 l 0,2.145207 c -0.16826,-0.205262 -0.33988,-0.360053 -0.51485,-0.464374 -0.31969,-0.191801 -0.66292,-0.287705 -1.0297,-0.28771 -0.46438,5e-6 -0.86818,0.139654 -1.21141,0.418946 -0.43409,0.353333 -0.65114,0.837897 -0.65114,1.453694 0,0.612438 0.21705,1.095319 0.65114,1.448645 0.34323,0.279299 0.74703,0.418948 1.21141,0.418947 0.36678,1e-6 0.71001,-0.0959 1.0297,-0.287711 0.17161,-0.100949 0.34322,-0.25574 0.51485,-0.464374 z"
       inkscape:connector-curvature="0" /><path
       id="path6964-6-3"
       style="letter-spacing:-0.18680002px;fill:#7081c4;fill-opacity:1"
       d="m 117.82584,34.246967 c 0,1.164302 -0.51149,1.923115 -1.53445,2.276443 -0.3567,0.124506 -0.74031,0.186759 -1.15084,0.186759 -0.86145,0 -1.66065,-0.260789 -2.39759,-0.782369 l 0.76723,-1.443598 c 0.5384,0.484566 1.06503,0.726848 1.57988,0.726846 0.23219,2e-6 0.42904,-0.05384 0.59056,-0.161521 0.18844,-0.12114 0.28266,-0.292756 0.28267,-0.51485 -1e-5,-0.2019 -0.10432,-0.370151 -0.31295,-0.504755 -0.1548,-0.100948 -0.41559,-0.203581 -0.78237,-0.3079 -0.44419,-0.131233 -0.72348,-0.222089 -0.83789,-0.272567 -0.18172,-0.07739 -0.33651,-0.168249 -0.46438,-0.272568 -0.36679,-0.302849 -0.55018,-0.760493 -0.55018,-1.372932 0,-0.639351 0.19012,-1.169342 0.57037,-1.589977 0.44418,-0.494653 1.03643,-0.741982 1.77674,-0.741989 0.74367,7e-6 1.47219,0.186766 2.18559,0.560277 l -0.71676,1.393123 c -0.39034,-0.302847 -0.78405,-0.454274 -1.18112,-0.454279 -0.19181,5e-6 -0.36343,0.0488 -0.51485,0.146379 -0.17162,0.111051 -0.25743,0.259112 -0.25743,0.444184 0,0.181716 0.11273,0.33819 0.33819,0.469421 0.10095,0.06058 0.4038,0.164891 0.90856,0.312948 0.63262,0.185081 1.08353,0.447553 1.35274,0.787417 0.23218,0.289396 0.34828,0.661232 0.34828,1.115508 z"
       inkscape:connector-curvature="0" /></g><g
     id="g3085"
     transform="matrix(2.6829099,0,0,2.4472605,304.71566,-83.505262)"><path
       sodipodi:nodetypes="csscscccc"
       style="fill:#ff6f06"
       inkscape:connector-curvature="0"
       id="path6117-8-9"
       d="m -81.340259,69.028719 c 0,0 -8.5216,4.10603 -7.84945,10.49791 0.67214,6.39188 13.14092,10.12425 23.59053,8.63102 10.4496,-1.49323 25.11993,-12.291978 21.51283,-16.335671 0,0 1.94193,-0.536125 0.90936,3.909781 -0.9649,4.154518 -14.88705,15.7846 -34.57666,13.63887 -1.53343,-0.16701 -12.28918,-1.72677 -13.32053,-9.79729 -0.53881,-4.33957 4.48462,-8.72444 9.23865,-11.01028 1.25722,-0.56049 2.00828,-0.39489 0.49527,0.46566 z" /><path
       style="fill:#ff6f06"
       inkscape:connector-curvature="0"
       id="path6119-9-4"
       d="m -80.668109,72.108599 c 0,0 -2.96073,2.47268 -0.80686,5.59926 2.15387,3.12659 8.79101,4.43157 15.0703,3.87249 6.27928,-0.56049 13.41032,-3.45212 16.28124,-8.63101 0.49391,-1.21299 0.58371,0.18683 0.13471,1.11957 -0.44901,0.93273 -6.77184,8.77114 -20.94548,8.44418 -1.6586,-0.0382 -9.57608,0.10191 -12.15447,-5.19729 -1.07625,-2.45428 0.58371,-4.64671 1.65997,-5.76628 1.07489,-1.12098 1.44498,-0.19391 0.76059,0.55908 z" /><polygon
       transform="matrix(1.3606258,0,0,1.4153851,-105.58797,40.729509)"
       style="fill:#fd671b"
       id="polygon6121-8-8"
       points="19.881,8.366 21.933,27.155 24.925,24.634 26.037,4.015 " /><polygon
       transform="matrix(1.3606258,0,0,1.4153851,-105.58797,40.729509)"
       style="fill:#df4118"
       id="polygon6123-4-4"
       points="19.881,8.366 16.89,6.71 20.722,26.092 21.933,27.155 " /><polygon
       transform="matrix(1.3606258,0,0,1.4153851,-105.58797,40.729509)"
       style="fill:#c0441d"
       id="polygon6125-1-9"
       points="23.738,2.458 16.89,6.71 19.881,8.366 26.037,4.015 " /><polygon
       transform="matrix(1.3606258,0,0,1.4153851,-105.58797,40.729509)"
       style="fill:#e46715"
       id="polygon6127-4-9"
       points="26.576,9.766 24.422,8.094 25.947,24.913 27.181,25.905 " /><polygon
       transform="matrix(1.3606258,0,0,1.4153851,-105.58797,40.729509)"
       style="fill:#ff9225"
       id="polygon6129-3-2"
       points="26.576,9.766 27.181,25.905 30.278,23.921 32.165,6.924 " /><polygon
       transform="matrix(1.3606258,0,0,1.4153851,-105.58797,40.729509)"
       style="fill:#d75516"
       id="polygon6131-9-5"
       points="30.133,5.265 24.422,8.094 26.576,9.766 32.165,6.924 " /><polygon
       transform="matrix(1.3606258,0,0,1.4153851,-105.58797,40.729509)"
       style="fill:#ce761c"
       id="polygon6133-8-5"
       points="36.181,8.094 31.006,10.204 32.49,11.984 37.698,9.512 " /><polygon
       transform="matrix(1.3606258,0,0,1.4153851,-105.58797,40.729509)"
       style="fill:#e58c1d"
       id="polygon6135-80-3"
       points="31.006,10.204 31.303,24.51 32.49,25.301 32.49,11.984 " /><polygon
       transform="matrix(1.3606258,0,0,1.4153851,-105.58797,40.729509)"
       style="fill:#ffc82e"
       id="polygon6137-8-3"
       points="32.49,11.984 32.49,25.301 35.555,23.422 37.698,9.512 " /></g><path
     sodipodi:nodetypes="ccccccccccc"
     inkscape:connector-curvature="0"
     id="path4634-6-0"
     d="m 107.76048,146.59684 43.69241,-0.0571 -7.10941,8.10113 -24.90493,0.1207 0,6.57798 16.45498,0 0,8.16664 -16.45498,0 0,12.47581 -11.67807,0 z"
     style="font-style:normal;font-variant:normal;font-weight:bold;font-stretch:normal;font-size:28px;line-height:125%;font-family:'Spy Agency';-inkscape-font-specification:'Sans Bold';letter-spacing:0px;word-spacing:0px;fill:#526db0;fill-opacity:1;stroke:none" /><path
     sodipodi:nodetypes="sccccccssccccccccccccccccccsscccs"
     inkscape:connector-curvature="0"
     id="path4636-0-9"
     d="m 158.61174,168.37266 28.13308,0 0.86263,0.62301 0,4.13956 -1.06108,0.68011 -31.24385,0.19694 -4.18927,7.96974 42.40108,0 c 0.66279,0 1.33712,-0.16062 2.02294,-0.48197 0.68575,-0.32129 1.30505,-0.72771 1.85793,-1.21919 0.55278,-0.49148 1.01716,-1.03028 1.39318,-1.61638 0.37592,-0.58607 0.5639,-1.14392 0.56397,-1.67347 l 0,-10.14989 c -7e-5,-1.24718 -0.20997,-2.28668 -0.62978,-3.11853 -0.4199,-0.83182 -0.98385,-1.51251 -1.69187,-2.04211 -0.70812,-0.52953 -1.5154,-0.90766 -2.42187,-1.13438 -0.90657,-0.22669 -1.8249,-0.34004 -2.755,-0.34006 l -28.13305,0 -0.92946,-0.62301 0,-4.36628 1.06108,-0.45516 28.97227,-0.1209 7.10942,-8.10113 -42.98282,0.0571 c -0.61831,4e-5 -1.27034,0.1606 -1.95613,0.48197 -0.6858,0.32134 -1.31624,0.72775 -1.89132,1.2192 -0.57511,0.49152 -1.05063,1.03031 -1.4266,1.61636 -0.37599,0.58614 -0.56397,1.14338 -0.56397,1.67175 l 0,10.15164 c 0,1.2472 0.20997,2.2867 0.62978,3.11853 0.41983,0.83185 0.9838,1.51224 1.69187,2.04122 0.70805,0.529 1.51568,0.90712 2.42289,1.13441 0.90716,0.22728 1.82516,0.34092 2.75395,0.34092 z"
     style="font-style:normal;font-variant:normal;font-weight:bold;font-stretch:normal;font-size:28px;line-height:125%;font-family:'Spy Agency';-inkscape-font-specification:'Sans Bold';letter-spacing:0px;word-spacing:0px;fill:#526db0;fill-opacity:1;stroke:none" /><g
     transform="matrix(2.3698054,0,0,2.0252826,-54.523762,-502.2844)"
     id="g4650-3-9"
     style="font-style:normal;font-variant:normal;font-weight:bold;font-stretch:normal;font-size:28px;line-height:125%;font-family:'Spy Agency';-inkscape-font-specification:'Sans Bold';letter-spacing:0px;word-spacing:0px;fill:#526db0;fill-opacity:1;stroke:none"><g
       id="g4646-8-6"
       style="fill:#526db0;fill-opacity:1"><path
         style="fill:#526db0;fill-opacity:1"
         d="M 63.84375,11.9375 54.5625,27.8125 59.711167,27.7904 61.125,25.515622 c 1.073367,-1.833779 1.383023,-2.312498 2.093747,-3.546872 l -0.0036,0 0.0015,0.0096 -0.0029,-0.0094 3.067393,-5.218947 3.1875,5.265625 -3.90625,-0.04687 c -0.56952,0.909764 -1.5517,2.53602 -2.125,3.6875 l 0.09375,0 7.875,0 1.34375,2.15625 5.28125,0 L 68.75,11.9375 Z"
         id="path4632-0-8"
         transform="matrix(0.99999998,0,0,1.1000055,-10.448336,307.27085)"
         inkscape:connector-curvature="0"
         sodipodi:nodetypes="cccccccccccccccccc" /></g></g></svg>